<svg xmlns="http://www.w3.org/2000/svg" width="797" height="525" viewBox="0 0 797 525" version="1.1"><path d="M 434 78.481 C 430.425 79.762, 422.325 82.711, 416 85.034 C 409.675 87.357, 402.475 89.825, 400 90.517 C 397.525 91.210, 390.717 93.381, 384.871 95.343 C 379.025 97.304, 367.979 100.723, 360.325 102.941 C 352.671 105.158, 344.855 107.173, 342.955 107.419 C 341.055 107.664, 339.387 107.952, 339.250 108.058 C 339.113 108.163, 338.663 108.345, 338.250 108.461 C 337.837 108.578, 336.825 108.962, 336 109.316 C 335.175 109.670, 327.075 111.777, 318 113.998 C 308.925 116.219, 299.025 118.457, 296 118.971 C 292.975 119.485, 287.350 120.579, 283.500 121.403 C 279.650 122.228, 268.400 124.303, 258.500 126.015 C 248.600 127.727, 238.025 129.535, 235 130.032 C 231.975 130.530, 224.550 131.436, 218.500 132.045 C 212.450 132.654, 205.700 133.327, 203.500 133.541 C 201.300 133.755, 198.150 134.169, 196.500 134.461 C 194.850 134.754, 188.550 135.243, 182.500 135.547 C 176.450 135.852, 168.125 136.268, 164 136.473 C 159.875 136.677, 148.287 137.168, 138.250 137.564 C 124.084 138.123, 120 138.582, 120 139.615 C 120 140.348, 120.964 143.096, 122.143 145.723 C 123.322 148.350, 125.302 152.750, 126.543 155.500 C 127.784 158.250, 130.127 163.425, 131.750 167 C 133.373 170.575, 135.525 175.750, 136.533 178.500 C 137.540 181.250, 138.957 184.388, 139.682 185.473 C 140.407 186.557, 141 188.048, 141 188.784 C 141 189.521, 142.053 192.458, 143.340 195.312 C 144.626 198.165, 146.909 203.425, 148.412 207 C 149.915 210.575, 153.633 219.350, 156.674 226.500 C 159.716 233.650, 162.789 240.850, 163.503 242.500 C 164.217 244.150, 165.937 247.990, 167.325 251.033 C 168.713 254.076, 172.840 263.751, 176.495 272.533 C 180.151 281.315, 184.469 291.284, 186.092 294.686 C 188.030 298.752, 189.634 300.871, 190.771 300.869 C 191.722 300.867, 194.750 301.128, 197.500 301.450 C 200.250 301.771, 203.400 302.040, 204.500 302.046 C 205.600 302.052, 210.550 302.737, 215.500 303.568 C 220.450 304.399, 225.400 305.247, 226.500 305.454 C 227.600 305.660, 230.525 306.131, 233 306.500 C 235.475 306.869, 243.963 308.734, 251.862 310.645 C 259.761 312.556, 272.038 315.869, 279.143 318.006 C 286.248 320.143, 295.985 323.337, 300.780 325.103 C 305.576 326.870, 314.225 330.407, 320 332.964 C 325.775 335.521, 336.839 341.292, 344.588 345.788 C 352.336 350.284, 364.036 357.942, 370.588 362.806 C 377.139 367.669, 385.881 374.990, 390.013 379.074 C 394.146 383.159, 398.837 388.075, 400.439 390 C 402.041 391.925, 406.218 397.525, 409.721 402.444 C 413.225 407.363, 418.320 415.841, 421.045 421.284 C 423.770 426.727, 426 431.778, 426 432.507 C 426 433.237, 426.355 433.983, 426.790 434.167 C 427.224 434.350, 429.010 438.503, 430.759 443.395 C 432.508 448.287, 433.701 452.674, 433.411 453.145 C 433.120 453.615, 433.287 454, 433.783 454 C 434.278 454, 435.217 455.781, 435.869 457.958 C 436.521 460.135, 437.474 462.175, 437.985 462.491 C 438.496 462.807, 439.556 461.813, 440.339 460.283 C 441.123 458.752, 443.213 453.225, 444.985 448 C 446.756 442.775, 448.868 436.925, 449.678 435 C 450.488 433.075, 453.030 427.495, 455.326 422.601 C 457.622 417.706, 462.035 409.900, 465.134 405.254 C 468.233 400.607, 474.161 392.858, 478.307 388.034 C 482.454 383.209, 490.268 375.564, 495.673 371.045 C 501.078 366.526, 510.502 359.492, 516.615 355.414 C 522.728 351.336, 528.203 348, 528.782 348 C 529.360 348, 529.983 347.662, 530.167 347.250 C 530.350 346.837, 532.300 345.499, 534.500 344.275 C 536.700 343.051, 543 339.835, 548.500 337.128 C 554 334.422, 562.775 330.540, 568 328.502 C 573.225 326.464, 580.650 323.697, 584.500 322.354 C 588.350 321.010, 596.675 318.387, 603 316.524 C 609.325 314.662, 619.675 311.928, 626 310.449 C 632.325 308.971, 640.650 307.138, 644.500 306.377 C 648.350 305.615, 658.394 304.094, 666.819 302.996 C 675.245 301.898, 683.374 301, 684.884 301 C 687.058 301, 688.018 300.220, 689.495 297.250 C 690.521 295.188, 691.279 293.163, 691.180 292.750 C 691.081 292.337, 691.354 292, 691.787 292 C 692.220 292, 692.648 291.028, 692.737 289.840 C 692.827 288.652, 693.485 287.309, 694.200 286.855 C 694.915 286.402, 695.126 286.024, 694.668 286.015 C 694.211 286.007, 694.810 284.425, 696 282.500 C 697.190 280.575, 697.789 278.993, 697.332 278.985 C 696.874 278.976, 696.950 278.639, 697.500 278.235 C 698.050 277.831, 699.288 275.797, 700.250 273.716 C 701.212 271.635, 702 269.315, 702 268.561 C 702 267.806, 702.885 265.459, 703.967 263.345 C 705.049 261.230, 707.706 255.225, 709.871 250 C 712.036 244.775, 716.272 234.650, 719.285 227.500 C 722.297 220.350, 726.678 209.775, 729.020 204 C 731.363 198.225, 733.608 193.050, 734.009 192.500 C 734.411 191.950, 735.283 189.813, 735.947 187.750 C 736.612 185.688, 737.534 184, 737.998 184 C 738.462 184, 739.157 182.563, 739.543 180.806 C 739.928 179.049, 741.539 174.814, 743.122 171.394 C 744.705 167.975, 746 164.687, 746 164.088 C 746 163.490, 746.450 163, 747 163 C 747.550 163, 748 162.274, 748 161.386 C 748 160.499, 748.845 158.136, 749.878 156.136 C 750.911 154.136, 752.342 151.150, 753.060 149.500 C 753.777 147.850, 754.941 144.931, 755.645 143.013 C 756.350 141.096, 756.601 139.201, 756.202 138.802 C 755.803 138.403, 747.382 137.989, 737.488 137.881 C 727.595 137.773, 713.200 137.331, 705.500 136.898 C 697.800 136.466, 686.325 135.613, 680 135.004 C 673.675 134.394, 661.300 132.999, 652.500 131.902 C 643.700 130.806, 628.625 128.566, 619 126.925 C 609.375 125.284, 595.875 122.815, 589 121.438 C 582.125 120.061, 574.700 118.477, 572.500 117.918 C 570.300 117.359, 567.825 116.636, 567 116.312 C 566.175 115.988, 564.600 115.560, 563.500 115.361 C 562.400 115.162, 560.825 114.855, 560 114.679 C 559.175 114.503, 557.825 114.068, 557 113.712 C 556.175 113.357, 550.100 111.741, 543.500 110.122 C 536.900 108.502, 527.450 106.054, 522.500 104.681 C 517.550 103.309, 507.875 100.536, 501 98.520 C 494.125 96.503, 481.930 92.678, 473.900 90.018 C 465.871 87.359, 455.746 83.725, 451.400 81.944 C 447.055 80.162, 442.825 78.130, 442 77.428 C 440.768 76.381, 439.338 76.569, 434 78.481 M 429 91.103 C 424.875 92.699, 415.200 96.224, 407.500 98.934 C 399.800 101.645, 388.108 105.493, 381.518 107.484 C 374.928 109.476, 363.228 112.837, 355.518 114.953 C 347.808 117.070, 334.975 120.406, 327 122.367 C 319.025 124.329, 304.993 127.515, 295.819 129.448 C 286.644 131.381, 269.994 134.555, 258.819 136.500 C 247.643 138.446, 231.750 140.907, 223.500 141.968 C 215.250 143.029, 201.075 144.581, 192 145.416 C 182.925 146.250, 166.613 147.240, 155.750 147.615 C 140.463 148.143, 136 148.594, 136 149.609 C 136 150.331, 139.881 160.052, 144.625 171.211 C 149.369 182.370, 158.529 203.875, 164.982 219 C 171.435 234.125, 180.663 255.950, 185.489 267.500 C 190.315 279.050, 194.992 289.217, 195.882 290.093 C 196.980 291.174, 201.786 292.223, 210.831 293.355 C 218.162 294.273, 232.112 296.620, 241.831 298.571 C 251.549 300.522, 264.900 303.639, 271.500 305.498 C 278.100 307.357, 288.161 310.503, 293.858 312.491 C 299.555 314.478, 310.580 318.814, 318.358 322.127 C 326.136 325.439, 337.225 330.634, 343 333.671 C 348.775 336.708, 357.845 342.037, 363.156 345.512 C 368.467 348.988, 376.341 354.682, 380.654 358.166 C 384.967 361.650, 392.030 367.866, 396.349 371.979 C 400.668 376.093, 407.456 383.518, 411.432 388.479 C 415.409 393.441, 420.381 400.200, 422.482 403.500 C 424.582 406.800, 428.483 413.960, 431.150 419.411 C 433.818 424.863, 436 429.870, 436 430.539 C 436 431.208, 436.698 432.334, 437.551 433.042 C 438.866 434.133, 439.195 433.971, 439.717 431.972 C 440.056 430.676, 442.671 424.865, 445.528 419.058 C 448.385 413.251, 453.456 404.450, 456.795 399.500 C 460.135 394.550, 466.446 386.450, 470.819 381.500 C 475.192 376.550, 482.678 369.125, 487.454 365 C 492.231 360.875, 500.045 354.705, 504.819 351.290 C 509.594 347.874, 517.325 342.784, 522 339.978 C 526.675 337.172, 536.800 331.810, 544.500 328.063 C 552.200 324.316, 564.125 319.108, 571 316.490 C 577.875 313.873, 588.450 310.198, 594.500 308.324 C 600.550 306.450, 609.775 303.842, 615 302.529 C 620.225 301.216, 630.232 298.992, 637.238 297.587 C 644.244 296.181, 657.067 294.089, 665.733 292.938 C 674.399 291.786, 681.528 290.766, 681.575 290.672 C 681.622 290.577, 688.690 273.850, 697.283 253.500 C 705.876 233.150, 719.005 202.167, 726.460 184.648 C 733.914 167.129, 740.269 151.775, 740.582 150.529 L 741.151 148.261 722.826 147.537 C 712.747 147.138, 700 146.432, 694.500 145.968 C 689 145.503, 676.625 144.200, 667 143.073 C 657.375 141.945, 644.550 140.310, 638.500 139.438 C 632.450 138.567, 616.700 135.879, 603.500 133.466 C 590.300 131.052, 574.550 127.915, 568.500 126.493 C 562.450 125.072, 551.875 122.565, 545 120.922 C 538.125 119.279, 527.550 116.559, 521.500 114.877 C 515.450 113.195, 504.200 109.865, 496.500 107.476 C 488.800 105.088, 476.650 101.116, 469.500 98.651 C 462.350 96.186, 452.757 92.781, 448.182 91.085 C 443.607 89.388, 439.107 88.045, 438.182 88.100 C 437.257 88.155, 433.125 89.506, 429 91.103 M 350 160.151 C 350 160.649, 351.322 163.677, 352.938 166.878 L 355.877 172.699 362.451 173.313 C 366.066 173.651, 370.822 174.466, 373.019 175.124 C 375.215 175.782, 377.275 176.059, 377.595 175.739 C 377.915 175.419, 376.939 173.046, 375.427 170.466 C 373.915 167.886, 371.288 164.920, 369.589 163.875 C 367.890 162.830, 364.925 161.574, 363 161.083 C 361.075 160.592, 357.363 159.978, 354.750 159.718 C 352.137 159.458, 350 159.653, 350 160.151 M 509.731 161.666 C 506.883 162.847, 505.100 164.699, 502.439 169.240 C 500.502 172.545, 499.067 175.400, 499.251 175.584 C 499.435 175.768, 502.041 175.303, 505.043 174.551 C 508.044 173.799, 512.982 172.898, 516.015 172.549 C 521.453 171.924, 521.569 171.841, 524.265 166.692 C 525.769 163.819, 527 161.138, 527 160.734 C 527 160.330, 523.962 160.023, 520.250 160.052 C 516.522 160.080, 511.812 160.803, 509.731 161.666 M 545.622 172.332 C 543.630 175.699, 542.033 178.915, 542.073 179.477 C 542.113 180.040, 545.314 183.083, 549.186 186.239 C 553.058 189.396, 556.635 191.726, 557.135 191.416 C 557.635 191.107, 559.379 188.210, 561.011 184.979 C 562.642 181.747, 563.720 178.433, 563.405 177.614 C 563.091 176.795, 559.776 173.894, 556.039 171.167 L 549.244 166.209 545.622 172.332 M 320.352 173.316 L 313.686 179.631 316.982 185.816 C 318.795 189.217, 320.778 191.988, 321.389 191.973 C 322 191.958, 325.586 189.141, 329.358 185.712 L 336.217 179.477 332.560 173.239 C 330.550 169.807, 328.480 167, 327.961 167 C 327.443 167, 324.019 169.842, 320.352 173.316 M 344.500 176.936 C 340.650 178.519, 337.594 180.250, 337.709 180.783 C 337.823 181.315, 339.532 184.507, 341.506 187.876 C 343.481 191.244, 345.654 194, 346.336 194 C 347.019 194, 349.360 193.089, 351.539 191.976 C 353.717 190.862, 357.188 189.680, 359.250 189.348 C 361.313 189.016, 363 188.229, 363 187.599 C 363 186.970, 361.342 183.652, 359.316 180.227 C 356.666 175.748, 355.052 174.008, 353.566 174.029 C 352.430 174.045, 348.350 175.353, 344.500 176.936 M 518.231 179.877 C 516.454 183.109, 515 186.242, 515 186.838 C 515 187.435, 516.910 188.437, 519.244 189.066 C 521.579 189.694, 525.161 191.062, 527.205 192.104 C 529.248 193.147, 531.307 194, 531.779 194 C 532.251 194, 534.343 190.794, 536.427 186.876 C 539.450 181.193, 539.942 179.575, 538.858 178.880 C 538.111 178.401, 535.121 177.107, 532.212 176.005 C 529.304 174.902, 525.696 174, 524.193 174 C 521.894 174, 520.950 174.930, 518.231 179.877 M 366 189.513 C 366 189.922, 367.414 192.786, 369.142 195.878 C 370.870 198.970, 372.981 202.063, 373.833 202.750 C 374.685 203.438, 377.002 204, 378.981 204 C 380.960 204, 385.222 204.688, 388.452 205.529 C 391.681 206.371, 394.683 206.933, 395.121 206.779 C 395.560 206.626, 394.233 203.588, 392.173 200.030 C 388.654 193.952, 388.091 193.458, 382.889 191.874 C 379.843 190.946, 374.797 189.869, 371.675 189.479 C 368.554 189.089, 366 189.104, 366 189.513 M 497.013 190.606 C 493.996 191.417, 490.621 192.690, 489.513 193.436 C 488.406 194.181, 486.201 197.326, 484.612 200.424 C 483.024 203.523, 481.973 206.306, 482.277 206.610 C 482.580 206.914, 483.655 206.722, 484.664 206.184 C 485.674 205.647, 490.100 204.656, 494.500 203.984 C 498.900 203.311, 503.010 202.624, 503.634 202.456 C 504.257 202.289, 506.170 199.563, 507.884 196.398 C 509.598 193.234, 511 190.275, 511 189.822 C 511 189.370, 509.087 189.030, 506.750 189.066 C 504.413 189.102, 500.031 189.795, 497.013 190.606 M 579.218 196.189 C 578.107 198.010, 576.291 201.133, 575.184 203.129 L 573.170 206.759 578.552 209.394 C 581.512 210.843, 585.861 212.281, 588.217 212.589 L 592.500 213.149 595.778 206.824 C 597.581 203.346, 599.044 200.162, 599.028 199.750 C 599.013 199.338, 598.212 198.989, 597.250 198.976 C 596.288 198.963, 592.800 197.812, 589.500 196.417 C 586.200 195.023, 582.991 193.656, 582.369 193.380 C 581.748 193.104, 580.329 194.368, 579.218 196.189 M 292.500 195.234 C 291.400 195.880, 287.800 197.391, 284.500 198.593 C 281.200 199.795, 278.592 201.064, 278.704 201.413 C 278.817 201.763, 280.342 204.738, 282.094 208.024 C 283.845 211.311, 285.778 213.997, 286.389 213.994 C 287 213.991, 289.300 213.490, 291.500 212.880 C 293.700 212.270, 297.413 210.873, 299.750 209.776 C 302.087 208.678, 304 207.403, 304 206.943 C 304 206.483, 302.403 203.383, 300.452 200.054 C 298.501 196.724, 296.363 194.014, 295.702 194.030 C 295.041 194.047, 293.600 194.589, 292.500 195.234 M 315 199.602 C 311.975 202.110, 308.661 204.977, 307.634 205.974 C 305.817 207.740, 305.854 207.946, 309.081 214 C 310.902 217.417, 312.984 220.440, 313.707 220.718 C 314.431 220.995, 316.930 219.647, 319.261 217.721 C 321.593 215.796, 324.789 213.099, 326.365 211.729 L 329.231 209.238 325.001 202.119 C 322.675 198.204, 320.711 195.010, 320.636 195.022 C 320.561 195.033, 318.025 197.095, 315 199.602 M 552.736 201.639 C 549.607 207.143, 549.185 208.519, 550.236 209.794 C 550.931 210.638, 554.119 213.512, 557.320 216.180 C 560.522 218.848, 563.548 220.779, 564.046 220.471 C 564.544 220.164, 566.589 216.984, 568.591 213.404 C 570.592 209.825, 572.066 206.779, 571.865 206.635 C 571.664 206.490, 568.437 203.814, 564.693 200.686 C 560.949 197.559, 557.574 195.004, 557.193 195.009 C 556.812 195.014, 554.806 197.998, 552.736 201.639 M 338.289 201.634 C 335.105 204.182, 331.888 206.835, 331.140 207.529 C 330.004 208.583, 330.307 209.753, 332.986 214.645 C 334.749 217.865, 336.649 221.057, 337.208 221.738 C 337.999 222.701, 338.810 222.537, 340.862 220.998 C 342.313 219.910, 345.697 217.062, 348.383 214.668 L 353.266 210.316 349.383 203.677 C 347.247 200.026, 345.180 197.030, 344.789 197.019 C 344.398 197.009, 341.473 199.085, 338.289 201.634 M 531 197.965 C 531 198.496, 529.650 201.059, 528 203.661 C 526.350 206.263, 525 208.944, 525 209.620 C 525 210.296, 528.023 213.358, 531.717 216.424 C 535.412 219.491, 538.900 221.995, 539.467 221.988 C 540.035 221.982, 542.075 219.169, 544 215.738 C 545.925 212.307, 547.637 209.202, 547.804 208.837 C 547.972 208.472, 544.997 205.660, 541.194 202.587 C 537.391 199.514, 533.541 197, 532.639 197 C 531.738 197, 531 197.434, 531 197.965 M 501.416 210.583 C 499.411 214.169, 498.028 217.361, 498.343 217.676 C 498.658 217.991, 501.972 219.335, 505.708 220.662 C 509.444 221.989, 513.226 223.319, 514.114 223.618 C 515.303 224.019, 516.688 222.414, 519.381 217.514 C 521.391 213.858, 522.794 210.476, 522.499 209.998 C 522.204 209.520, 519.608 208.265, 516.731 207.208 C 513.854 206.151, 510.052 205.010, 508.281 204.674 C 505.171 204.083, 504.941 204.281, 501.416 210.583 M 361.657 207.426 C 358.444 208.760, 355.555 210.112, 355.238 210.429 C 354.920 210.746, 355.662 213.142, 356.886 215.753 C 358.109 218.364, 359.911 221.560, 360.889 222.855 L 362.667 225.210 366.699 223.153 C 368.917 222.022, 372.817 220.571, 375.366 219.930 C 377.915 219.288, 379.995 218.478, 379.988 218.131 C 379.982 217.784, 378.477 214.800, 376.646 211.500 C 373.874 206.507, 372.827 205.458, 370.408 205.250 C 368.808 205.112, 364.871 206.091, 361.657 207.426 M 610.500 211.637 C 608.300 212.460, 603.334 213.386, 599.464 213.695 L 592.427 214.256 589.214 220.057 C 587.446 223.248, 586 226.565, 586 227.429 C 586 228.396, 586.865 228.994, 588.250 228.985 C 589.487 228.976, 594.058 228.073, 598.407 226.977 C 602.755 225.882, 606.919 224.482, 607.661 223.867 C 608.402 223.252, 610.581 220.159, 612.504 216.993 C 614.427 213.828, 616 210.960, 616 210.619 C 616 210.279, 615.663 210.032, 615.250 210.070 C 614.837 210.109, 612.700 210.814, 610.500 211.637 M 265.837 217.750 C 269.428 224.354, 269.648 224.547, 276.004 226.677 C 279.577 227.874, 284.637 228.887, 287.250 228.927 C 290.005 228.969, 292 228.550, 292 227.929 C 292 227.340, 290.538 224.211, 288.750 220.974 C 285.506 215.101, 285.490 215.089, 280 214.468 C 276.975 214.127, 272.181 213.206, 269.346 212.424 C 266.511 211.641, 263.736 211, 263.179 211 C 262.622 211, 263.818 214.037, 265.837 217.750 M 484.528 220.066 C 481.794 220.524, 477.744 221.592, 475.528 222.440 C 472.446 223.620, 470.854 225.134, 468.750 228.888 C 467.238 231.587, 466 234.055, 466 234.373 C 466 234.690, 467.084 234.538, 468.408 234.035 C 469.733 233.531, 474.710 232.803, 479.469 232.417 L 488.122 231.715 491.052 226.608 C 492.663 223.798, 493.985 220.938, 493.991 220.250 C 493.996 219.563, 492.988 219.053, 491.750 219.118 C 490.512 219.182, 487.263 219.609, 484.528 220.066 M 383 220.256 C 383 220.548, 384.480 223.422, 386.289 226.643 L 389.579 232.500 395.539 233.105 C 398.818 233.437, 403.863 234.426, 406.750 235.301 C 409.637 236.176, 412 236.507, 412 236.036 C 412 235.565, 410.582 232.711, 408.848 229.693 C 406.079 224.871, 405.079 224.001, 400.598 222.511 C 397.794 221.579, 392.688 220.571, 389.250 220.272 C 385.813 219.972, 383 219.965, 383 220.256 M 563.408 224.738 C 562.810 225.707, 561.098 228.698, 559.605 231.385 C 558.111 234.071, 557.108 236.840, 557.376 237.537 C 557.643 238.234, 560.469 239.780, 563.655 240.972 C 566.841 242.164, 570.649 243.380, 572.117 243.673 C 574.542 244.158, 575.116 243.618, 578.393 237.758 C 580.377 234.210, 582 230.789, 582 230.154 C 582 229.519, 581.212 228.989, 580.250 228.976 C 579.288 228.963, 575.800 227.812, 572.500 226.417 C 569.200 225.023, 566.049 223.678, 565.498 223.429 C 564.947 223.180, 564.006 223.769, 563.408 224.738 M 309 225.523 C 307.625 226.321, 304.137 227.687, 301.250 228.558 C 298.363 229.429, 296.008 230.672, 296.018 231.321 C 296.028 231.969, 297.378 234.934, 299.018 237.910 C 300.658 240.885, 302 243.758, 302 244.294 C 302 244.882, 299.319 245.064, 295.250 244.753 C 291.538 244.469, 286.493 243.528, 284.039 242.662 C 281.586 241.797, 279.396 241.270, 279.174 241.493 C 278.952 241.715, 280.399 244.809, 282.389 248.368 C 285.872 254.595, 286.244 254.917, 292.254 256.884 C 295.689 258.008, 300.863 259.227, 303.750 259.593 C 307.728 260.097, 309 259.943, 309 258.960 C 309 258.246, 307.620 255.216, 305.933 252.227 C 304.246 249.238, 303.082 246.228, 303.347 245.538 C 303.612 244.849, 305.329 243.993, 307.164 243.636 C 308.999 243.279, 312.863 242.038, 315.750 240.878 C 318.637 239.717, 321 238.385, 321 237.918 C 321 237.451, 319.384 234.128, 317.408 230.534 C 315.433 226.940, 313.295 224.016, 312.658 224.035 C 312.021 224.055, 310.375 224.724, 309 225.523 M 539.275 226.258 C 538.748 226.941, 536.896 230.030, 535.159 233.122 C 533.421 236.214, 532 238.975, 532 239.258 C 532 239.541, 535.088 242.299, 538.861 245.387 C 542.635 248.474, 546.196 251, 546.775 251 C 547.354 251, 549.499 248.011, 551.542 244.358 L 555.257 237.715 551.378 234.349 C 549.245 232.497, 545.865 229.640, 543.866 227.999 C 541.102 225.730, 540.003 225.313, 539.275 226.258 M 333 229.298 C 331.075 231.103, 327.845 233.828, 325.822 235.353 L 322.144 238.127 326.317 245.064 C 328.612 248.879, 330.740 252, 331.046 252 C 331.352 252, 334.845 249.249, 338.810 245.887 L 346.018 239.775 342.850 234.137 C 341.108 231.037, 339.249 227.938, 338.719 227.250 C 338.189 226.563, 337.473 226.004, 337.128 226.009 C 336.782 226.013, 334.925 227.494, 333 229.298 M 513.872 229.250 C 513.213 230.488, 511.847 232.976, 510.837 234.780 C 509.827 236.585, 509 238.671, 509 239.418 C 509 240.164, 512.181 243.345, 516.068 246.486 C 519.956 249.627, 523.284 252.040, 523.463 251.848 C 523.642 251.657, 525.399 248.816, 527.367 245.535 L 530.945 239.571 528.723 237.152 C 527.500 235.821, 524.322 232.993, 521.660 230.866 C 518.998 228.740, 516.427 227, 515.945 227 C 515.464 227, 514.531 228.012, 513.872 229.250 M 356.983 230.778 C 355.048 232.275, 352.235 234.594, 350.733 235.930 C 349.230 237.267, 348 239.167, 348 240.153 C 348 241.140, 349.123 243.871, 350.496 246.223 C 351.869 248.575, 353.384 251.125, 353.863 251.888 C 354.541 252.968, 356.263 251.986, 361.617 247.467 C 365.403 244.272, 368.638 241.322, 368.806 240.911 C 368.974 240.500, 367.730 237.427, 366.042 234.082 C 364.353 230.737, 362.415 228.013, 361.736 228.028 C 361.056 228.043, 358.917 229.281, 356.983 230.778 M 592.500 242.509 C 590.300 243.224, 585.489 244.132, 581.809 244.528 L 575.118 245.247 571.504 252.123 L 567.891 259 572.199 259 C 574.568 259, 579.633 258.106, 583.454 257.013 C 587.276 255.920, 590.940 254.458, 591.597 253.763 C 592.254 253.068, 594.231 249.912, 595.991 246.750 C 598.096 242.968, 598.730 241.036, 597.845 241.105 C 597.105 241.163, 594.700 241.794, 592.500 242.509 M 326.987 255.552 C 325.619 256.309, 322.250 257.654, 319.500 258.542 C 316.750 259.429, 313.966 260.320, 313.313 260.522 C 312.495 260.775, 312.863 262.415, 314.501 265.811 C 315.807 268.518, 317.611 271.469, 318.510 272.367 C 319.612 273.469, 321.018 273.800, 322.822 273.384 C 324.295 273.044, 328.087 271.632, 331.250 270.246 C 334.413 268.861, 336.996 267.226, 336.991 266.613 C 336.985 266.001, 335.645 263.170, 334.011 260.322 C 332.378 257.474, 330.689 254.926, 330.258 254.660 C 329.827 254.393, 328.356 254.795, 326.987 255.552 M 544.732 258.250 C 543.381 260.587, 541.755 263.497, 541.121 264.716 C 540.090 266.694, 540.300 267.104, 543.086 268.544 C 544.801 269.431, 548.296 270.792, 550.852 271.568 C 553.409 272.344, 556.249 272.983, 557.165 272.989 C 558.105 272.995, 559.926 271.037, 561.351 268.488 C 562.738 266.006, 564.150 263.104, 564.487 262.040 C 564.999 260.428, 564.384 259.911, 560.806 258.948 C 558.444 258.312, 554.839 256.938, 552.795 255.896 C 550.752 254.853, 548.655 254, 548.135 254 C 547.615 254, 546.084 255.912, 544.732 258.250" stroke="none" fill="#fdfbfc" fill-rule="evenodd"/><path d="M 342.500 158.392 C 339.750 159.064, 334.350 161.273, 330.500 163.301 C 326.650 165.329, 320.113 170.029, 315.973 173.745 C 311.833 177.460, 305.961 182.615, 302.924 185.199 C 299.887 187.784, 293.375 191.834, 288.451 194.199 C 280.051 198.235, 279.008 198.491, 271.500 198.361 C 266.043 198.267, 261.752 197.552, 258 196.112 C 254.975 194.951, 252.132 194.001, 251.683 194.001 C 251.233 194, 251.173 195.012, 251.549 196.250 C 251.926 197.488, 254.267 202.100, 256.752 206.500 C 259.237 210.900, 263.970 219.675, 267.270 226 C 270.569 232.325, 274.108 238.694, 275.135 240.154 C 276.161 241.614, 277 243.111, 277 243.481 C 277 243.851, 279.415 248.282, 282.366 253.327 C 285.317 258.372, 288.905 264.585, 290.340 267.133 C 292.867 271.624, 293.203 271.836, 301.204 273.995 C 307.688 275.744, 311.291 276.129, 317.981 275.786 C 325.342 275.409, 327.451 274.857, 333.500 271.726 C 337.350 269.732, 343.088 266.131, 346.251 263.722 C 349.414 261.314, 354.589 256.899, 357.751 253.911 C 360.913 250.924, 365.413 247.247, 367.750 245.740 C 370.087 244.233, 373.688 241.908, 375.750 240.574 C 377.813 239.239, 382.153 237.388, 385.395 236.461 C 388.898 235.458, 393.160 234.966, 395.895 235.248 C 398.428 235.508, 403.730 236.718, 407.678 237.936 L 414.856 240.151 422.567 253.825 C 426.808 261.346, 431.094 268.869, 432.092 270.541 L 433.905 273.583 422.953 292.948 C 416.929 303.599, 412 313.127, 412 314.121 C 412 315.116, 412.867 316.394, 413.928 316.961 C 414.988 317.529, 416.565 317.720, 417.433 317.387 C 418.300 317.055, 423.308 309.181, 428.562 299.891 C 433.815 290.601, 438.290 283, 438.506 283 C 438.722 283, 443.219 290.627, 448.500 299.949 C 454.574 310.671, 458.835 317.130, 460.099 317.531 C 461.197 317.880, 462.749 317.623, 463.548 316.960 C 464.347 316.297, 465 314.900, 465 313.855 C 465 312.810, 460.275 303.703, 454.500 293.616 C 448.725 283.530, 444 274.597, 444 273.765 C 444 272.933, 448.133 264.987, 453.185 256.107 C 460.185 243.803, 463.099 239.586, 465.435 238.383 C 467.121 237.514, 471.425 236.173, 475 235.402 C 478.574 234.631, 483.128 234, 485.119 234 C 487.110 234, 491.508 234.885, 494.892 235.966 C 498.276 237.047, 503.979 240.025, 507.565 242.584 C 511.151 245.143, 517.554 250.455, 521.793 254.388 C 526.032 258.321, 532.075 263.488, 535.223 265.870 C 538.370 268.252, 543.545 271.270, 546.723 272.577 C 551.602 274.583, 554.234 274.956, 563.661 274.976 C 572.580 274.995, 575.909 274.584, 580.231 272.930 C 585.186 271.034, 585.905 270.342, 588.802 264.680 C 590.542 261.281, 592.997 256.700, 594.258 254.500 C 595.520 252.300, 598.756 246.450, 601.450 241.500 C 604.143 236.550, 607.617 230.622, 609.170 228.326 C 610.722 226.030, 612.469 222.880, 613.052 221.326 C 613.635 219.772, 615.141 216.925, 616.400 215 C 617.658 213.075, 620.514 208.350, 622.746 204.500 C 624.979 200.650, 627.104 196.488, 627.470 195.250 C 627.975 193.540, 627.728 193, 626.438 193 C 625.505 193, 621.623 194.125, 617.811 195.500 C 614 196.875, 609.445 197.993, 607.690 197.985 C 605.936 197.977, 601.796 197.333, 598.491 196.553 C 595.187 195.774, 590.462 194.198, 587.991 193.052 C 585.521 191.906, 581.969 189.849, 580.097 188.481 C 578.226 187.113, 573.726 183.350, 570.097 180.120 C 566.469 176.890, 560.049 171.484, 555.832 168.108 C 550.500 163.840, 546.234 161.345, 541.832 159.923 C 537.978 158.678, 531.363 157.650, 524.930 157.298 C 516.498 156.836, 513.326 157.063, 509.245 158.418 C 506.432 159.353, 503.538 160.038, 502.815 159.940 C 502.092 159.843, 500.736 159.816, 499.802 159.882 C 498.684 159.959, 494.096 167.096, 486.384 180.750 C 479.938 192.162, 466.878 215.225, 457.361 232 C 447.844 248.775, 439.707 263.094, 439.279 263.820 C 438.769 264.683, 429.543 249.294, 412.599 219.320 C 398.354 194.119, 384.979 170.518, 382.878 166.874 C 380.666 163.039, 378.195 160.023, 377.011 159.713 C 375.859 159.412, 374.293 159.850, 373.427 160.716 C 372.043 162.100, 371.519 162.092, 368.195 160.641 C 366.163 159.754, 362.475 158.583, 360 158.039 C 357.525 157.494, 353.700 157.076, 351.500 157.109 C 349.300 157.143, 345.250 157.720, 342.500 158.392 M 348.571 158.886 C 348.182 159.514, 349.245 162.576, 350.932 165.691 C 352.620 168.806, 354 171.725, 354 172.178 C 354 172.630, 353.212 173.012, 352.250 173.027 C 351.288 173.042, 347.461 174.350, 343.747 175.935 L 336.995 178.816 333.411 172.408 C 331.440 168.884, 329.217 166, 328.471 166 C 327.724 166, 324.192 168.478, 320.622 171.507 C 317.051 174.537, 313.838 177.934, 313.482 179.057 C 313.045 180.433, 313.935 182.953, 316.213 186.794 C 318.072 189.927, 320.272 192.621, 321.102 192.781 C 321.932 192.941, 323.711 192.105, 325.056 190.924 C 326.400 189.743, 329.479 187.144, 331.897 185.148 C 335.529 182.150, 336.446 181.778, 337.172 183.009 C 337.655 183.829, 339.581 187.088, 341.452 190.250 C 343.323 193.412, 344.463 196, 343.984 196 C 343.505 196, 340.196 198.475, 336.631 201.500 C 333.065 204.525, 329.911 207, 329.623 207 C 329.334 207, 327.462 204.075, 325.463 200.500 C 323.464 196.925, 321.353 194, 320.772 194 C 320.191 194, 317.192 196.108, 314.108 198.684 C 311.024 201.260, 307.753 203.993, 306.840 204.757 C 305.353 206.002, 304.796 205.460, 301.504 199.573 C 299.127 195.324, 297.200 193, 296.052 193 C 295.076 193, 291.299 194.350, 287.660 196 C 284.021 197.650, 280.386 199, 279.581 199 C 278.776 199, 277.882 199.382, 277.594 199.848 C 277.305 200.315, 278.670 203.711, 280.626 207.395 L 284.183 214.093 278.842 213.412 C 275.904 213.037, 270.819 211.909, 267.543 210.906 C 264.267 209.902, 261.342 209.328, 261.043 209.631 C 260.744 209.933, 262.349 213.623, 264.609 217.831 L 268.719 225.481 276.109 227.735 C 280.174 228.975, 285.637 229.991, 288.250 229.994 C 291.847 229.999, 293 229.629, 293 228.471 C 293 227.631, 291.668 224.305, 290.040 221.080 L 287.081 215.217 291.675 214.060 C 294.201 213.424, 298.052 211.994, 300.231 210.882 C 302.411 209.770, 304.440 209.107, 304.741 209.407 C 305.041 209.708, 306.971 212.753, 309.028 216.174 L 312.769 222.393 308.134 224.649 C 305.586 225.890, 301.363 227.461, 298.750 228.141 C 296.137 228.822, 294 229.782, 294 230.277 C 294 230.771, 295.654 234.133, 297.676 237.749 L 301.352 244.322 294.926 243.705 C 291.392 243.365, 286.338 242.342, 283.696 241.431 C 281.053 240.520, 278.621 240.046, 278.290 240.376 C 277.960 240.707, 279.168 243.891, 280.976 247.452 C 282.783 251.014, 284.991 254.557, 285.881 255.326 C 286.772 256.095, 289.700 257.455, 292.388 258.348 C 295.076 259.242, 300.078 260.260, 303.502 260.610 C 307.389 261.009, 309.968 260.861, 310.365 260.218 C 310.715 259.651, 309.383 256.189, 307.403 252.525 C 305.424 248.860, 303.961 245.734, 304.152 245.578 C 304.344 245.423, 306.698 244.757, 309.384 244.099 C 312.071 243.442, 315.920 242.061, 317.938 241.032 L 321.607 239.160 325.702 245.968 L 329.797 252.775 324.563 255.424 C 321.684 256.881, 317.668 258.342, 315.640 258.671 C 313.611 259, 311.722 259.641, 311.441 260.095 C 311.161 260.549, 312.260 263.553, 313.884 266.770 C 315.508 269.987, 317.514 273.182, 318.342 273.869 C 319.516 274.843, 320.800 274.864, 324.174 273.966 C 326.553 273.332, 330.637 271.900, 333.250 270.783 C 336.154 269.542, 337.995 268.121, 337.988 267.127 C 337.982 266.232, 336.482 262.815, 334.657 259.533 L 331.337 253.567 338.305 247.745 C 342.137 244.544, 345.666 242.055, 346.148 242.216 C 346.630 242.377, 348.488 244.946, 350.278 247.926 C 352.067 250.906, 353.998 253.499, 354.570 253.690 C 355.141 253.880, 359.081 251.062, 363.324 247.427 L 371.039 240.817 367.024 233.543 L 363.009 226.269 368.754 223.715 C 371.914 222.311, 376.054 221.013, 377.953 220.831 C 381.269 220.513, 381.558 220.767, 385.284 227.250 L 389.163 234 394.224 234 C 397.007 234, 402.413 234.932, 406.238 236.071 C 410.062 237.210, 413.424 237.909, 413.708 237.625 C 413.993 237.341, 412.476 234.046, 410.339 230.304 C 406.564 223.697, 406.265 223.437, 399.976 221.323 C 396.414 220.126, 390.800 219.110, 387.500 219.065 L 381.500 218.985 377.900 212.009 C 375.920 208.172, 374.458 204.875, 374.651 204.682 C 374.844 204.489, 377.814 204.710, 381.251 205.172 C 384.688 205.634, 389.489 206.684, 391.920 207.503 C 394.350 208.323, 396.597 208.736, 396.912 208.421 C 397.227 208.106, 395.966 205.070, 394.109 201.674 C 392.253 198.278, 390.045 194.708, 389.203 193.740 C 388.361 192.772, 385.436 191.316, 382.702 190.504 C 379.969 189.692, 374.835 188.731, 371.294 188.369 C 366.250 187.852, 364.578 187.253, 363.576 185.604 C 362.872 184.447, 361.048 181.298, 359.522 178.607 L 356.748 173.713 363.124 174.432 C 366.631 174.827, 371.863 175.947, 374.750 176.920 C 377.637 177.893, 380 178.270, 380 177.757 C 380 177.245, 378.419 173.998, 376.487 170.543 C 373.355 164.943, 372.338 163.976, 367.105 161.628 C 363.878 160.179, 358.546 158.713, 355.256 158.369 C 351.233 157.948, 349.045 158.118, 348.571 158.886 M 514.884 158.995 C 512.345 159.435, 509.053 160.432, 507.569 161.210 C 505.969 162.048, 503.269 165.524, 500.934 169.752 C 498.769 173.673, 497.366 177.108, 497.816 177.386 C 498.266 177.664, 500.593 177.217, 502.987 176.393 C 505.380 175.568, 510.249 174.621, 513.806 174.289 L 520.274 173.685 516.564 180.320 C 514.523 183.969, 513.117 187.380, 513.438 187.900 C 513.760 188.420, 515.480 189.150, 517.261 189.521 C 519.043 189.892, 523.054 191.323, 526.176 192.701 L 531.852 195.207 527.808 201.853 C 525.583 205.509, 523.661 208.618, 523.535 208.763 C 523.410 208.908, 520.750 207.895, 517.625 206.513 C 514.500 205.131, 511.168 203.993, 510.221 203.985 C 509.275 203.976, 507.932 203.609, 507.237 203.168 C 506.278 202.559, 506.694 201.061, 508.969 196.933 C 510.616 193.945, 511.972 190.648, 511.982 189.606 C 511.999 187.866, 511.408 187.759, 504.750 188.294 C 500.762 188.614, 495.444 189.593, 492.930 190.470 C 488.824 191.904, 487.927 192.828, 484.077 199.595 C 481.720 203.737, 480.030 207.363, 480.320 207.653 C 480.610 207.943, 484.568 207.240, 489.114 206.090 C 493.661 204.941, 498.645 204, 500.190 204 C 501.736 204, 503 204.280, 503 204.623 C 503 204.966, 501.579 207.831, 499.842 210.990 C 498.105 214.150, 496.944 217.413, 497.262 218.241 C 497.580 219.070, 499.543 220.067, 501.624 220.457 C 503.704 220.848, 507.228 222.085, 509.453 223.206 C 511.679 224.328, 513.666 225.394, 513.868 225.575 C 514.071 225.755, 512.585 228.908, 510.566 232.581 L 506.895 239.260 509.198 241.741 C 510.464 243.106, 514.053 246.197, 517.174 248.611 C 520.295 251.025, 523.220 253, 523.674 252.999 C 524.128 252.998, 525.726 250.861, 527.225 248.249 C 528.724 245.637, 530.366 242.873, 530.873 242.107 C 531.601 241.007, 533.292 241.944, 538.898 246.556 C 542.804 249.770, 546 252.579, 546 252.798 C 546 253.018, 544.408 256.094, 542.463 259.635 C 540.518 263.175, 539.198 266.512, 539.531 267.050 C 539.864 267.588, 541.890 268.924, 544.035 270.018 C 546.179 271.112, 550.216 272.496, 553.005 273.094 C 556.951 273.941, 558.418 273.898, 559.619 272.901 C 560.469 272.196, 562.483 269.005, 564.096 265.810 L 567.029 260 572.858 260 C 576.077 260, 581.282 259.107, 584.485 258.005 C 587.673 256.908, 590.910 255.489, 591.678 254.853 C 592.445 254.216, 594.664 250.849, 596.610 247.370 C 598.555 243.892, 599.877 240.610, 599.547 240.076 C 599.175 239.475, 597.391 239.657, 594.844 240.555 C 592.586 241.352, 587.816 242.470, 584.242 243.041 C 580.669 243.612, 577.546 243.880, 577.302 243.636 C 577.059 243.392, 578.466 240.269, 580.430 236.695 C 582.393 233.122, 584 229.960, 584 229.670 C 584 229.379, 581.426 228.394, 578.280 227.479 C 575.134 226.565, 570.836 224.936, 568.728 223.861 L 564.895 221.906 566.890 218.677 C 567.988 216.901, 569.476 214.335, 570.198 212.974 C 570.920 211.613, 571.856 209.963, 572.279 209.307 C 572.846 208.426, 574.416 208.751, 578.274 210.548 C 581.148 211.887, 584.962 213.261, 586.750 213.602 C 588.538 213.943, 590 214.635, 590 215.140 C 590 215.644, 588.634 218.762, 586.966 222.068 C 585.297 225.374, 584.198 228.512, 584.525 229.040 C 584.851 229.568, 586.779 229.963, 588.809 229.918 C 590.839 229.873, 596.081 228.860, 600.459 227.668 C 607.607 225.721, 608.699 225.092, 611.174 221.500 C 612.690 219.300, 614.664 215.991, 615.561 214.146 C 616.577 212.058, 616.838 210.438, 616.254 209.854 C 615.670 209.270, 613.653 209.471, 610.908 210.386 C 608.484 211.195, 603.836 212.337, 600.581 212.925 C 597.325 213.513, 594.430 213.764, 594.148 213.481 C 593.866 213.199, 595.067 210.300, 596.817 207.039 C 598.568 203.778, 600 200.461, 600 199.666 C 600 198.798, 598.553 197.951, 596.372 197.542 C 594.376 197.168, 590.238 195.753, 587.175 194.399 C 584.113 193.045, 581.133 192.123, 580.554 192.351 C 579.974 192.580, 578.172 195.323, 576.550 198.448 C 574.927 201.573, 573.220 204.364, 572.757 204.650 C 572.293 204.937, 570.471 204.056, 568.707 202.693 C 566.943 201.330, 563.742 198.679, 561.592 196.802 L 557.685 193.389 561.342 186.848 C 563.354 183.251, 565 179.596, 565 178.727 C 565 177.857, 561.594 174.384, 557.430 171.008 C 551.440 166.152, 549.572 165.110, 548.480 166.017 C 547.720 166.647, 545.723 169.601, 544.041 172.581 C 542.359 175.562, 540.614 178, 540.164 178 C 539.713 178, 536.576 176.875, 533.192 175.500 C 529.808 174.125, 526.131 173, 525.020 173 C 523.909 173, 523 172.762, 523 172.471 C 523 172.181, 524.345 169.279, 525.988 166.023 C 527.632 162.767, 528.644 159.907, 528.238 159.667 C 527.832 159.427, 525.700 158.997, 523.500 158.712 C 521.300 158.427, 517.423 158.554, 514.884 158.995 M 537.535 187.504 C 535.513 191.119, 534.003 194.446, 534.180 194.898 C 534.356 195.349, 537.293 198.031, 540.706 200.859 C 544.120 203.687, 547.339 206, 547.861 206 C 548.382 206, 550.263 203.412, 552.040 200.250 C 553.817 197.088, 555.641 194.260, 556.093 193.967 C 556.546 193.674, 555.248 192.125, 553.208 190.526 C 551.169 188.927, 547.635 186.114, 545.355 184.275 L 541.210 180.932 537.535 187.504 M 359 190.431 C 356.525 191.120, 352.584 192.665, 350.243 193.865 L 345.987 196.047 349.028 201.274 C 350.700 204.148, 352.440 207.119, 352.894 207.875 C 353.570 209, 354.909 208.774, 360.280 206.625 C 363.889 205.181, 368.039 204, 369.504 204 C 370.968 204, 372.017 203.633, 371.833 203.185 C 371.650 202.736, 369.925 199.363, 368 195.688 C 366.075 192.014, 364.275 189.046, 364 189.093 C 363.725 189.140, 361.475 189.742, 359 190.431 M 544.680 216.643 C 542.656 220.284, 541 223.654, 541 224.132 C 541 224.609, 541.359 225, 541.799 225 C 542.238 225, 544.399 226.732, 546.602 228.848 C 548.804 230.964, 551.762 233.453, 553.175 234.379 C 555.711 236.041, 555.762 236.021, 557.324 232.781 C 558.193 230.976, 559.980 227.949, 561.294 226.054 L 563.684 222.608 558.738 218.554 C 556.017 216.324, 552.569 213.492, 551.076 212.261 L 548.360 210.021 544.680 216.643 M 325.924 213.582 C 324.591 215.002, 321.423 217.748, 318.885 219.685 L 314.270 223.205 317.591 228.721 C 319.418 231.754, 321.066 234.698, 321.254 235.262 C 321.475 235.926, 322.459 235.843, 324.048 235.028 C 325.397 234.335, 328.584 231.753, 331.132 229.288 C 333.795 226.712, 336.484 224.955, 337.459 225.154 C 338.391 225.344, 340.508 227.975, 342.163 231 C 343.819 234.025, 345.535 236.878, 345.977 237.340 C 346.419 237.802, 349.230 236.002, 352.224 233.340 C 355.218 230.678, 358.526 228.004, 359.574 227.398 C 361.408 226.337, 361.370 226.094, 358.578 220.898 C 356.983 217.929, 355.149 214.718, 354.503 213.762 C 353.444 212.195, 352.648 212.613, 346.414 218.008 C 342.611 221.300, 338.976 223.995, 338.336 223.997 C 337.695 223.998, 335.866 221.863, 334.271 219.250 C 332.675 216.637, 331.076 213.713, 330.716 212.750 C 330.357 211.787, 329.677 211, 329.206 211 C 328.734 211, 327.258 212.162, 325.924 213.582 M 519.821 219.018 L 516.141 226.022 518.821 227.464 C 520.294 228.257, 523.432 230.727, 525.793 232.953 C 528.155 235.179, 530.476 237, 530.952 237 C 531.427 237, 533.454 234.021, 535.455 230.380 C 537.456 226.739, 538.960 223.673, 538.797 223.566 C 538.634 223.460, 535.437 220.814, 531.693 217.686 C 527.949 214.559, 524.574 212.003, 524.193 212.007 C 523.812 212.011, 521.844 215.166, 519.821 219.018 M 482.369 219.493 C 478.996 220.226, 474.885 221.525, 473.233 222.380 C 471.461 223.296, 468.924 226.245, 467.049 229.568 C 465.300 232.667, 464.109 235.442, 464.402 235.736 C 464.696 236.029, 466.272 235.716, 467.904 235.040 C 469.537 234.364, 475.025 233.515, 480.100 233.155 L 489.328 232.500 492.739 226.276 C 494.615 222.853, 495.865 219.591, 495.516 219.026 C 495.167 218.462, 493.446 218.036, 491.691 218.079 C 489.936 218.123, 485.741 218.759, 482.369 219.493 M 554.199 241.750 C 553.133 243.262, 551.329 246.342, 550.190 248.593 L 548.119 252.686 551.810 254.480 C 553.839 255.467, 557.975 257.019, 561 257.930 L 566.500 259.586 570.245 252.330 L 573.990 245.074 569.745 244.017 C 567.410 243.435, 563.575 242.068, 561.223 240.979 C 558.871 239.891, 556.764 239, 556.541 239 C 556.319 239, 555.264 240.238, 554.199 241.750" stroke="none" fill="#000000" fill-rule="evenodd"/><path d="M 429 91.103 C 424.875 92.699, 415.200 96.224, 407.500 98.934 C 399.800 101.645, 388.108 105.493, 381.518 107.484 C 374.928 109.476, 363.228 112.837, 355.518 114.953 C 347.808 117.070, 334.975 120.406, 327 122.367 C 319.025 124.329, 304.993 127.515, 295.819 129.448 C 286.644 131.381, 269.994 134.555, 258.819 136.500 C 247.643 138.446, 231.750 140.907, 223.500 141.968 C 215.250 143.029, 201.075 144.581, 192 145.416 C 182.925 146.250, 166.613 147.240, 155.750 147.615 C 140.463 148.143, 136 148.594, 136 149.609 C 136 150.331, 139.881 160.052, 144.625 171.211 C 149.369 182.370, 158.529 203.875, 164.982 219 C 171.435 234.125, 180.663 255.950, 185.489 267.500 C 190.315 279.050, 194.992 289.217, 195.882 290.093 C 196.980 291.174, 201.786 292.223, 210.831 293.355 C 218.162 294.273, 232.112 296.620, 241.831 298.571 C 251.549 300.522, 264.900 303.639, 271.500 305.498 C 278.100 307.357, 288.161 310.503, 293.858 312.491 C 299.555 314.478, 310.580 318.814, 318.358 322.127 C 326.136 325.439, 337.225 330.634, 343 333.671 C 348.775 336.708, 357.845 342.037, 363.156 345.512 C 368.467 348.988, 376.341 354.682, 380.654 358.166 C 384.967 361.650, 392.030 367.866, 396.349 371.979 C 400.668 376.093, 407.456 383.518, 411.432 388.479 C 415.409 393.441, 420.381 400.200, 422.482 403.500 C 424.582 406.800, 428.483 413.960, 431.150 419.411 C 433.818 424.863, 436 429.870, 436 430.539 C 436 431.208, 436.698 432.334, 437.551 433.042 C 438.866 434.133, 439.195 433.971, 439.717 431.972 C 440.056 430.676, 442.671 424.865, 445.528 419.058 C 448.385 413.251, 453.456 404.450, 456.795 399.500 C 460.135 394.550, 466.446 386.450, 470.819 381.500 C 475.192 376.550, 482.678 369.125, 487.454 365 C 492.231 360.875, 500.045 354.705, 504.819 351.290 C 509.594 347.874, 517.325 342.784, 522 339.978 C 526.675 337.172, 536.800 331.810, 544.500 328.063 C 552.200 324.316, 564.125 319.108, 571 316.490 C 577.875 313.873, 588.450 310.198, 594.500 308.324 C 600.550 306.450, 609.775 303.842, 615 302.529 C 620.225 301.216, 630.232 298.992, 637.238 297.587 C 644.244 296.181, 657.067 294.089, 665.733 292.938 C 674.399 291.786, 681.528 290.766, 681.575 290.672 C 681.622 290.577, 688.690 273.850, 697.283 253.500 C 705.876 233.150, 719.005 202.167, 726.460 184.648 C 733.914 167.129, 740.269 151.775, 740.582 150.529 L 741.151 148.261 722.826 147.537 C 712.747 147.138, 700 146.432, 694.500 145.968 C 689 145.503, 676.625 144.200, 667 143.073 C 657.375 141.945, 644.550 140.310, 638.500 139.438 C 632.450 138.567, 616.700 135.879, 603.500 133.466 C 590.300 131.052, 574.550 127.915, 568.500 126.493 C 562.450 125.072, 551.875 122.565, 545 120.922 C 538.125 119.279, 527.550 116.559, 521.500 114.877 C 515.450 113.195, 504.200 109.865, 496.500 107.476 C 488.800 105.088, 476.650 101.116, 469.500 98.651 C 462.350 96.186, 452.757 92.781, 448.182 91.085 C 443.607 89.388, 439.107 88.045, 438.182 88.100 C 437.257 88.155, 433.125 89.506, 429 91.103 M 342.500 158.392 C 339.750 159.064, 334.350 161.273, 330.500 163.301 C 326.650 165.329, 320.113 170.029, 315.973 173.745 C 311.833 177.460, 305.961 182.615, 302.924 185.199 C 299.887 187.784, 293.375 191.834, 288.451 194.199 C 280.051 198.235, 279.008 198.491, 271.500 198.361 C 266.043 198.267, 261.752 197.552, 258 196.112 C 254.975 194.951, 252.132 194.001, 251.683 194.001 C 251.233 194, 251.173 195.012, 251.549 196.250 C 251.926 197.488, 254.267 202.100, 256.752 206.500 C 259.237 210.900, 263.970 219.675, 267.270 226 C 270.569 232.325, 274.108 238.694, 275.135 240.154 C 276.161 241.614, 277 243.111, 277 243.481 C 277 243.851, 279.415 248.282, 282.366 253.327 C 285.317 258.372, 288.905 264.585, 290.340 267.133 C 292.867 271.624, 293.203 271.836, 301.204 273.995 C 307.688 275.744, 311.291 276.129, 317.981 275.786 C 325.342 275.409, 327.451 274.857, 333.500 271.726 C 337.350 269.732, 343.088 266.131, 346.251 263.722 C 349.414 261.314, 354.589 256.899, 357.751 253.911 C 360.913 250.924, 365.413 247.247, 367.750 245.740 C 370.087 244.233, 373.688 241.908, 375.750 240.574 C 377.813 239.239, 382.153 237.388, 385.395 236.461 C 388.898 235.458, 393.160 234.966, 395.895 235.248 C 398.428 235.508, 403.730 236.718, 407.678 237.936 L 414.856 240.151 422.567 253.825 C 426.808 261.346, 431.094 268.869, 432.092 270.541 L 433.905 273.583 422.953 292.948 C 416.929 303.599, 412 313.127, 412 314.121 C 412 315.116, 412.867 316.394, 413.928 316.961 C 414.988 317.529, 416.565 317.720, 417.433 317.387 C 418.300 317.055, 423.308 309.181, 428.562 299.891 C 433.815 290.601, 438.290 283, 438.506 283 C 438.722 283, 443.219 290.627, 448.500 299.949 C 454.574 310.671, 458.835 317.130, 460.099 317.531 C 461.197 317.880, 462.749 317.623, 463.548 316.960 C 464.347 316.297, 465 314.900, 465 313.855 C 465 312.810, 460.275 303.703, 454.500 293.616 C 448.725 283.530, 444 274.597, 444 273.765 C 444 272.933, 448.133 264.987, 453.185 256.107 C 460.185 243.803, 463.099 239.586, 465.435 238.383 C 467.121 237.514, 471.425 236.173, 475 235.402 C 478.574 234.631, 483.128 234, 485.119 234 C 487.110 234, 491.508 234.885, 494.892 235.966 C 498.276 237.047, 503.979 240.025, 507.565 242.584 C 511.151 245.143, 517.554 250.455, 521.793 254.388 C 526.032 258.321, 532.075 263.488, 535.223 265.870 C 538.370 268.252, 543.545 271.270, 546.723 272.577 C 551.602 274.583, 554.234 274.956, 563.661 274.976 C 572.580 274.995, 575.909 274.584, 580.231 272.930 C 585.186 271.034, 585.905 270.342, 588.802 264.680 C 590.542 261.281, 592.997 256.700, 594.258 254.500 C 595.520 252.300, 598.756 246.450, 601.450 241.500 C 604.143 236.550, 607.617 230.622, 609.170 228.326 C 610.722 226.030, 612.469 222.880, 613.052 221.326 C 613.635 219.772, 615.141 216.925, 616.400 215 C 617.658 213.075, 620.514 208.350, 622.746 204.500 C 624.979 200.650, 627.104 196.488, 627.470 195.250 C 627.975 193.540, 627.728 193, 626.438 193 C 625.505 193, 621.623 194.125, 617.811 195.500 C 614 196.875, 609.445 197.993, 607.690 197.985 C 605.936 197.977, 601.796 197.333, 598.491 196.553 C 595.187 195.774, 590.462 194.198, 587.991 193.052 C 585.521 191.906, 581.969 189.849, 580.097 188.481 C 578.226 187.113, 573.726 183.350, 570.097 180.120 C 566.469 176.890, 560.049 171.484, 555.832 168.108 C 550.500 163.840, 546.234 161.345, 541.832 159.923 C 537.978 158.678, 531.363 157.650, 524.930 157.298 C 516.498 156.836, 513.326 157.063, 509.245 158.418 C 506.432 159.353, 503.538 160.038, 502.815 159.940 C 502.092 159.843, 500.736 159.816, 499.802 159.882 C 498.684 159.959, 494.096 167.096, 486.384 180.750 C 479.938 192.162, 466.878 215.225, 457.361 232 C 447.844 248.775, 439.707 263.094, 439.279 263.820 C 438.769 264.683, 429.543 249.294, 412.599 219.320 C 398.354 194.119, 384.979 170.518, 382.878 166.874 C 380.666 163.039, 378.195 160.023, 377.011 159.713 C 375.859 159.412, 374.293 159.850, 373.427 160.716 C 372.043 162.100, 371.519 162.092, 368.195 160.641 C 366.163 159.754, 362.475 158.583, 360 158.039 C 357.525 157.494, 353.700 157.076, 351.500 157.109 C 349.300 157.143, 345.250 157.720, 342.500 158.392 M 348.571 158.886 C 348.182 159.514, 349.245 162.576, 350.932 165.691 C 352.620 168.806, 354 171.725, 354 172.178 C 354 172.630, 353.212 173.012, 352.250 173.027 C 351.288 173.042, 347.461 174.350, 343.747 175.935 L 336.995 178.816 333.411 172.408 C 331.440 168.884, 329.217 166, 328.471 166 C 327.724 166, 324.192 168.478, 320.622 171.507 C 317.051 174.537, 313.838 177.934, 313.482 179.057 C 313.045 180.433, 313.935 182.953, 316.213 186.794 C 318.072 189.927, 320.272 192.621, 321.102 192.781 C 321.932 192.941, 323.711 192.105, 325.056 190.924 C 326.400 189.743, 329.479 187.144, 331.897 185.148 C 335.529 182.150, 336.446 181.778, 337.172 183.009 C 337.655 183.829, 339.581 187.088, 341.452 190.250 C 343.323 193.412, 344.463 196, 343.984 196 C 343.505 196, 340.196 198.475, 336.631 201.500 C 333.065 204.525, 329.911 207, 329.623 207 C 329.334 207, 327.462 204.075, 325.463 200.500 C 323.464 196.925, 321.353 194, 320.772 194 C 320.191 194, 317.192 196.108, 314.108 198.684 C 311.024 201.260, 307.753 203.993, 306.840 204.757 C 305.353 206.002, 304.796 205.460, 301.504 199.573 C 299.127 195.324, 297.200 193, 296.052 193 C 295.076 193, 291.299 194.350, 287.660 196 C 284.021 197.650, 280.386 199, 279.581 199 C 278.776 199, 277.880 199.384, 277.590 199.854 C 277.300 200.324, 278.600 203.587, 280.481 207.104 C 283.520 212.790, 283.711 213.575, 282.200 214.180 C 280.896 214.701, 281.082 214.879, 283 214.942 C 284.985 215.007, 286.169 216.242, 288.750 220.941 C 290.538 224.196, 292 227.340, 292 227.929 C 292 228.550, 290.005 228.969, 287.250 228.927 C 284.637 228.887, 279.577 227.874, 276.004 226.677 C 269.648 224.547, 269.428 224.354, 265.837 217.750 C 263.818 214.037, 262.691 211.005, 263.333 211.011 C 263.975 211.017, 266.709 211.692, 269.409 212.511 C 272.109 213.330, 275.709 213.947, 277.409 213.883 C 279.673 213.797, 279.162 213.542, 275.500 212.927 C 272.750 212.466, 268.517 211.388, 266.094 210.533 C 263.671 209.678, 261.421 209.249, 261.094 209.579 C 260.767 209.910, 262.349 213.623, 264.609 217.831 L 268.719 225.481 276.109 227.735 C 280.174 228.975, 285.637 229.991, 288.250 229.994 C 291.847 229.999, 293 229.629, 293 228.471 C 293 227.631, 291.668 224.305, 290.040 221.080 L 287.081 215.217 291.675 214.060 C 294.201 213.424, 298.052 211.994, 300.231 210.882 C 302.411 209.770, 304.440 209.107, 304.741 209.407 C 305.041 209.708, 306.971 212.753, 309.028 216.174 L 312.769 222.393 308.134 224.649 C 305.586 225.890, 301.363 227.461, 298.750 228.141 C 296.137 228.822, 294 229.782, 294 230.277 C 294 230.771, 295.614 234.061, 297.586 237.588 L 301.172 244 297.296 244 C 295.164 244, 290.963 243.336, 287.960 242.525 C 284.957 241.713, 281.488 240.761, 280.250 240.408 C 279.012 240.055, 278 240.173, 278 240.669 C 278 241.165, 278.788 241.623, 279.750 241.687 C 280.712 241.750, 283.975 242.516, 287 243.389 C 290.025 244.262, 294.637 244.982, 297.250 244.988 C 299.863 244.995, 302 244.622, 302 244.160 C 302 243.698, 300.658 240.885, 299.018 237.910 C 297.378 234.934, 296.028 231.955, 296.018 231.289 C 296.008 230.622, 297.910 229.563, 300.244 228.934 C 302.579 228.306, 306.161 226.938, 308.205 225.896 C 310.248 224.853, 312.347 224, 312.868 224 C 313.390 224, 315.433 226.940, 317.408 230.534 C 319.384 234.128, 321 237.451, 321 237.918 C 321 238.385, 318.637 239.717, 315.750 240.878 C 312.863 242.038, 308.999 243.279, 307.164 243.636 C 305.329 243.993, 303.612 244.849, 303.347 245.538 C 303.082 246.228, 304.246 249.238, 305.933 252.227 C 307.620 255.216, 309 258.246, 309 258.960 C 309 259.943, 307.728 260.097, 303.750 259.593 C 300.863 259.227, 295.694 258.010, 292.265 256.887 C 286.331 254.945, 285.860 254.548, 282.530 248.673 C 280.606 245.278, 279.024 242.895, 279.015 243.378 C 279.007 243.861, 280.353 246.621, 282.006 249.511 C 283.660 252.401, 285.572 255.205, 286.256 255.741 C 286.940 256.278, 289.700 257.449, 292.388 258.345 C 295.076 259.240, 300.078 260.260, 303.502 260.610 C 307.389 261.009, 309.968 260.861, 310.365 260.218 C 310.715 259.651, 309.383 256.189, 307.403 252.525 C 305.424 248.860, 303.961 245.734, 304.152 245.578 C 304.344 245.423, 306.698 244.757, 309.384 244.099 C 312.071 243.442, 315.920 242.061, 317.938 241.032 L 321.607 239.160 325.702 245.968 L 329.797 252.775 324.563 255.424 C 321.684 256.881, 317.668 258.342, 315.640 258.671 C 313.611 259, 311.722 259.641, 311.441 260.095 C 311.161 260.549, 312.260 263.553, 313.884 266.770 C 315.508 269.987, 317.514 273.182, 318.342 273.869 C 319.516 274.843, 320.800 274.864, 324.174 273.966 C 326.553 273.332, 330.637 271.900, 333.250 270.783 C 336.154 269.542, 337.995 268.121, 337.988 267.127 C 337.982 266.232, 336.482 262.815, 334.657 259.533 L 331.337 253.567 338.305 247.745 C 342.137 244.544, 345.666 242.055, 346.148 242.216 C 346.630 242.377, 348.488 244.946, 350.278 247.926 C 352.067 250.906, 353.998 253.499, 354.570 253.690 C 355.141 253.880, 359.081 251.062, 363.324 247.427 L 371.039 240.817 367.024 233.543 L 363.009 226.269 368.754 223.715 C 371.914 222.311, 376.054 221.013, 377.953 220.831 C 381.269 220.513, 381.558 220.767, 385.284 227.250 L 389.163 234 394.832 233.837 L 400.500 233.674 395.036 233.087 C 389.592 232.502, 389.561 232.479, 386.286 226.643 C 384.479 223.422, 383 220.548, 383 220.256 C 383 219.965, 385.813 219.972, 389.250 220.272 C 392.688 220.571, 397.794 221.579, 400.598 222.511 C 405.079 224.001, 406.079 224.871, 408.848 229.693 C 410.582 232.711, 412 235.547, 412 235.996 C 412 236.445, 410.988 236.625, 409.750 236.395 C 408.166 236.101, 408.332 236.308, 410.313 237.093 C 411.859 237.706, 413.373 237.961, 413.675 237.658 C 413.978 237.356, 412.476 234.046, 410.339 230.304 C 406.564 223.697, 406.265 223.437, 399.976 221.323 C 396.373 220.112, 390.822 219.114, 387.465 219.073 L 381.429 219 378.031 212.250 C 376.161 208.537, 374.735 204.938, 374.860 204.250 C 374.985 203.563, 374.657 203, 374.130 203 C 373.603 203, 371.517 200.041, 369.495 196.424 C 367.472 192.808, 366.076 189.591, 366.392 189.275 C 366.707 188.959, 370.017 189.205, 373.746 189.821 C 377.475 190.437, 382.320 191.561, 384.513 192.319 C 387.813 193.461, 389.139 194.801, 392.210 200.099 C 394.250 203.620, 395.560 206.626, 395.121 206.779 C 394.683 206.933, 391.681 206.371, 388.452 205.529 C 385.222 204.688, 380.987 204.055, 379.040 204.122 C 376.456 204.211, 377.120 204.479, 381.500 205.115 C 384.800 205.595, 389.489 206.663, 391.920 207.490 C 394.350 208.317, 396.597 208.736, 396.912 208.421 C 397.227 208.106, 395.966 205.070, 394.109 201.674 C 392.253 198.278, 390.045 194.708, 389.203 193.740 C 388.361 192.772, 385.436 191.316, 382.702 190.504 C 379.969 189.692, 374.835 188.731, 371.294 188.369 C 366.250 187.852, 364.578 187.253, 363.576 185.604 C 362.872 184.447, 361.048 181.298, 359.522 178.607 L 356.748 173.713 363.124 174.432 C 366.631 174.827, 371.863 175.947, 374.750 176.920 C 377.637 177.893, 380 178.270, 380 177.757 C 380 177.245, 378.419 173.998, 376.487 170.543 C 373.355 164.943, 372.338 163.976, 367.105 161.628 C 363.878 160.179, 358.546 158.713, 355.256 158.369 C 351.233 157.948, 349.045 158.118, 348.571 158.886 M 514.884 158.995 C 512.345 159.435, 509.053 160.432, 507.569 161.210 C 505.969 162.048, 503.269 165.524, 500.934 169.752 C 498.769 173.673, 497.366 177.108, 497.816 177.386 C 498.266 177.664, 500.593 177.217, 502.987 176.393 C 505.380 175.568, 510.249 174.621, 513.806 174.289 L 520.274 173.685 516.564 180.320 C 514.523 183.969, 513.117 187.380, 513.438 187.900 C 513.760 188.420, 515.480 189.150, 517.261 189.521 C 519.043 189.892, 523.054 191.323, 526.176 192.701 L 531.852 195.207 527.808 201.853 C 525.583 205.509, 523.661 208.618, 523.535 208.763 C 523.410 208.908, 520.750 207.895, 517.625 206.513 C 514.500 205.131, 511.168 203.993, 510.221 203.985 C 509.275 203.976, 507.932 203.609, 507.237 203.168 C 506.278 202.559, 506.694 201.061, 508.969 196.933 C 510.616 193.945, 511.972 190.648, 511.982 189.606 C 511.999 187.866, 511.408 187.759, 504.750 188.294 C 500.762 188.614, 495.444 189.593, 492.930 190.470 C 488.824 191.904, 487.927 192.828, 484.077 199.595 C 481.720 203.737, 480.030 207.363, 480.320 207.653 C 480.610 207.943, 484.568 207.240, 489.114 206.090 C 493.661 204.941, 498.645 204, 500.190 204 C 501.736 204, 503 204.280, 503 204.623 C 503 204.966, 501.579 207.831, 499.842 210.990 C 498.105 214.150, 496.944 217.413, 497.262 218.241 C 497.580 219.070, 499.543 220.067, 501.624 220.457 C 503.704 220.848, 507.228 222.085, 509.453 223.206 C 511.679 224.328, 513.666 225.394, 513.868 225.575 C 514.071 225.755, 512.585 228.908, 510.566 232.581 L 506.895 239.260 509.198 241.741 C 510.464 243.106, 514.053 246.197, 517.174 248.611 C 520.295 251.025, 523.220 253, 523.674 252.999 C 524.128 252.998, 525.726 250.861, 527.225 248.249 C 528.724 245.637, 530.366 242.873, 530.873 242.107 C 531.601 241.007, 533.292 241.944, 538.898 246.556 C 542.804 249.770, 546 252.579, 546 252.798 C 546 253.018, 544.408 256.094, 542.463 259.635 C 540.518 263.175, 539.223 266.551, 539.586 267.138 C 539.948 267.725, 542.552 269.280, 545.373 270.593 C 548.193 271.906, 551.400 272.940, 552.500 272.891 C 553.600 272.842, 552.662 272.222, 550.416 271.513 C 548.170 270.803, 544.889 269.477, 543.124 268.564 L 539.917 266.905 543.208 260.845 C 545.019 257.512, 547.019 254.576, 547.653 254.322 C 548.287 254.068, 550.540 254.745, 552.659 255.826 C 554.778 256.907, 558.444 258.312, 560.806 258.948 C 564.384 259.911, 564.999 260.428, 564.487 262.040 C 564.150 263.104, 562.738 266.006, 561.351 268.488 C 559.641 271.547, 558.132 273.037, 556.665 273.116 C 554.902 273.210, 554.834 273.319, 556.298 273.699 C 557.287 273.955, 558.786 273.592, 559.630 272.892 C 560.473 272.192, 562.483 269.005, 564.096 265.810 L 567.029 260 572.858 260 C 576.077 260, 581.282 259.107, 584.485 258.005 C 587.673 256.908, 590.910 255.489, 591.678 254.853 C 592.445 254.216, 594.664 250.849, 596.610 247.370 C 598.555 243.892, 599.877 240.610, 599.547 240.076 C 599.175 239.475, 597.391 239.657, 594.844 240.555 C 592.586 241.352, 587.816 242.470, 584.242 243.041 C 580.669 243.612, 577.546 243.880, 577.302 243.636 C 577.059 243.392, 578.466 240.269, 580.430 236.695 C 582.393 233.122, 584 229.960, 584 229.670 C 584 229.379, 581.426 228.394, 578.280 227.479 C 575.134 226.565, 570.836 224.936, 568.728 223.861 L 564.895 221.906 566.890 218.677 C 567.988 216.901, 569.476 214.335, 570.198 212.974 C 570.920 211.613, 571.856 209.963, 572.279 209.307 C 572.846 208.426, 574.416 208.751, 578.274 210.548 C 581.148 211.887, 584.962 213.261, 586.750 213.602 C 588.538 213.943, 590 214.635, 590 215.140 C 590 215.644, 588.634 218.762, 586.966 222.068 C 585.297 225.374, 584.198 228.512, 584.525 229.040 C 584.851 229.568, 586.779 229.963, 588.809 229.918 C 590.839 229.873, 596.081 228.860, 600.459 227.668 C 607.607 225.721, 608.699 225.092, 611.174 221.500 C 612.690 219.300, 614.664 215.991, 615.561 214.146 C 616.510 212.197, 616.821 210.421, 616.306 209.906 C 615.791 209.391, 613.971 209.481, 611.960 210.121 C 610.057 210.727, 605.800 211.840, 602.500 212.594 L 596.500 213.966 601.705 213.454 C 604.568 213.173, 608.800 212.276, 611.111 211.461 C 613.422 210.646, 615.515 210.182, 615.764 210.431 C 616.013 210.679, 614.594 213.553, 612.612 216.816 C 610.630 220.079, 608.402 223.252, 607.661 223.867 C 606.919 224.482, 602.755 225.882, 598.407 226.977 C 594.058 228.073, 589.487 228.976, 588.250 228.985 C 586.832 228.994, 586 228.398, 586 227.372 C 586 226.476, 587.433 223.214, 589.184 220.122 C 590.935 217.030, 592.623 214.275, 592.934 214 C 593.245 213.725, 594.962 210.712, 596.750 207.305 C 598.538 203.898, 600 200.461, 600 199.666 C 600 198.798, 598.553 197.951, 596.372 197.542 C 594.376 197.168, 590.238 195.753, 587.175 194.399 C 584.113 193.045, 581.133 192.123, 580.554 192.351 C 579.974 192.580, 578.172 195.323, 576.550 198.448 C 574.927 201.573, 573.220 204.364, 572.757 204.650 C 572.293 204.937, 570.471 204.056, 568.707 202.693 C 566.943 201.330, 563.742 198.679, 561.592 196.802 L 557.685 193.389 561.342 186.848 C 563.354 183.251, 565 179.596, 565 178.727 C 565 177.857, 561.594 174.384, 557.430 171.008 C 551.440 166.152, 549.572 165.110, 548.480 166.017 C 547.720 166.647, 545.698 169.646, 543.985 172.681 C 541.720 176.694, 540.411 178.067, 539.185 177.713 C 538.258 177.446, 536.600 176.922, 535.500 176.550 C 534.400 176.177, 534.850 176.636, 536.500 177.568 C 538.150 178.501, 539.651 179.393, 539.835 179.551 C 540.020 179.708, 538.476 183.024, 536.404 186.919 C 534.332 190.813, 532.251 194, 531.779 194 C 531.307 194, 529.248 193.147, 527.205 192.104 C 525.161 191.062, 521.579 189.694, 519.244 189.066 C 516.910 188.437, 515 187.435, 515 186.838 C 515 186.242, 516.462 183.069, 518.250 179.788 C 521.498 173.826, 521.503 173.822, 525.500 174.300 C 527.700 174.564, 530.400 175.061, 531.500 175.405 C 532.600 175.749, 532.150 175.369, 530.500 174.560 C 528.850 173.752, 526.487 173.070, 525.250 173.045 C 524.013 173.020, 523 172.762, 523 172.471 C 523 172.181, 524.345 169.279, 525.988 166.023 C 527.632 162.767, 528.644 159.907, 528.238 159.667 C 527.832 159.427, 525.700 158.997, 523.500 158.712 C 521.300 158.427, 517.423 158.554, 514.884 158.995 M 350 160.151 C 350 160.649, 351.322 163.677, 352.938 166.878 L 355.877 172.699 362.451 173.313 C 366.066 173.651, 370.822 174.466, 373.019 175.124 C 375.215 175.782, 377.275 176.059, 377.595 175.739 C 377.915 175.419, 376.939 173.046, 375.427 170.466 C 373.915 167.886, 371.288 164.920, 369.589 163.875 C 367.890 162.830, 364.925 161.574, 363 161.083 C 361.075 160.592, 357.363 159.978, 354.750 159.718 C 352.137 159.458, 350 159.653, 350 160.151 M 509.731 161.666 C 506.883 162.847, 505.100 164.699, 502.439 169.240 C 500.502 172.545, 499.067 175.400, 499.251 175.584 C 499.435 175.768, 502.041 175.303, 505.043 174.551 C 508.044 173.799, 512.982 172.898, 516.015 172.549 C 521.453 171.924, 521.569 171.841, 524.265 166.692 C 525.769 163.819, 527 161.138, 527 160.734 C 527 160.330, 523.962 160.023, 520.250 160.052 C 516.522 160.080, 511.812 160.803, 509.731 161.666 M 545.622 172.332 C 543.630 175.699, 542.033 178.915, 542.073 179.477 C 542.113 180.040, 545.314 183.083, 549.186 186.239 C 553.058 189.396, 556.635 191.726, 557.135 191.416 C 557.635 191.107, 559.379 188.210, 561.011 184.979 C 562.642 181.747, 563.720 178.433, 563.405 177.614 C 563.091 176.795, 559.776 173.894, 556.039 171.167 L 549.244 166.209 545.622 172.332 M 320.352 173.316 L 313.686 179.631 316.982 185.816 C 318.795 189.217, 320.778 191.988, 321.389 191.973 C 322 191.958, 325.586 189.141, 329.358 185.712 L 336.217 179.477 332.560 173.239 C 330.550 169.807, 328.480 167, 327.961 167 C 327.443 167, 324.019 169.842, 320.352 173.316 M 344.500 176.936 C 340.650 178.519, 337.594 180.250, 337.709 180.783 C 337.823 181.315, 339.532 184.507, 341.506 187.876 C 343.481 191.244, 345.654 194, 346.336 194 C 347.019 194, 349.360 193.089, 351.539 191.976 C 353.717 190.862, 357.188 189.680, 359.250 189.348 C 361.313 189.016, 363 188.229, 363 187.599 C 363 186.970, 361.342 183.652, 359.316 180.227 C 356.666 175.748, 355.052 174.008, 353.566 174.029 C 352.430 174.045, 348.350 175.353, 344.500 176.936 M 537.535 187.504 C 535.513 191.119, 534.003 194.446, 534.180 194.898 C 534.356 195.349, 537.293 198.031, 540.706 200.859 C 544.120 203.687, 547.339 206, 547.861 206 C 548.382 206, 550.263 203.412, 552.040 200.250 C 553.817 197.088, 555.641 194.260, 556.093 193.967 C 556.546 193.674, 555.248 192.125, 553.208 190.526 C 551.169 188.927, 547.635 186.114, 545.355 184.275 L 541.210 180.932 537.535 187.504 M 359 190.431 C 356.525 191.120, 352.584 192.665, 350.243 193.865 L 345.987 196.047 349.028 201.274 C 350.700 204.148, 352.440 207.119, 352.894 207.875 C 353.570 209, 354.909 208.774, 360.280 206.625 C 363.889 205.181, 368.039 204, 369.504 204 C 370.968 204, 372.017 203.633, 371.833 203.185 C 371.650 202.736, 369.925 199.363, 368 195.688 C 366.075 192.014, 364.275 189.046, 364 189.093 C 363.725 189.140, 361.475 189.742, 359 190.431 M 497.013 190.606 C 493.996 191.417, 490.621 192.690, 489.513 193.436 C 488.406 194.181, 486.201 197.326, 484.612 200.424 C 483.024 203.523, 481.973 206.306, 482.277 206.610 C 482.580 206.914, 483.655 206.722, 484.664 206.184 C 485.674 205.647, 490.100 204.656, 494.500 203.984 C 498.900 203.311, 503.010 202.624, 503.634 202.456 C 504.257 202.289, 506.170 199.563, 507.884 196.398 C 509.598 193.234, 511 190.275, 511 189.822 C 511 189.370, 509.087 189.030, 506.750 189.066 C 504.413 189.102, 500.031 189.795, 497.013 190.606 M 579.218 196.189 C 578.107 198.010, 576.291 201.133, 575.184 203.129 L 573.170 206.759 578.552 209.394 C 581.512 210.843, 585.861 212.281, 588.217 212.589 L 592.500 213.149 595.778 206.824 C 597.581 203.346, 599.044 200.162, 599.028 199.750 C 599.013 199.338, 598.212 198.989, 597.250 198.976 C 596.288 198.963, 592.800 197.812, 589.500 196.417 C 586.200 195.023, 582.991 193.656, 582.369 193.380 C 581.748 193.104, 580.329 194.368, 579.218 196.189 M 292.500 195.234 C 291.400 195.880, 287.800 197.391, 284.500 198.593 C 281.200 199.795, 278.592 201.064, 278.704 201.413 C 278.817 201.763, 280.342 204.738, 282.094 208.024 C 283.845 211.311, 285.778 213.997, 286.389 213.994 C 287 213.991, 289.300 213.490, 291.500 212.880 C 293.700 212.270, 297.413 210.873, 299.750 209.776 C 302.087 208.678, 304 207.403, 304 206.943 C 304 206.483, 302.403 203.383, 300.452 200.054 C 298.501 196.724, 296.363 194.014, 295.702 194.030 C 295.041 194.047, 293.600 194.589, 292.500 195.234 M 315 199.602 C 311.975 202.110, 308.661 204.977, 307.634 205.974 C 305.817 207.740, 305.854 207.946, 309.081 214 C 310.902 217.417, 312.984 220.440, 313.707 220.718 C 314.431 220.995, 316.930 219.647, 319.261 217.721 C 321.593 215.796, 324.789 213.099, 326.365 211.729 L 329.231 209.238 325.001 202.119 C 322.675 198.204, 320.711 195.010, 320.636 195.022 C 320.561 195.033, 318.025 197.095, 315 199.602 M 552.736 201.639 C 549.607 207.143, 549.185 208.519, 550.236 209.794 C 550.931 210.638, 554.119 213.512, 557.320 216.180 C 560.522 218.848, 563.548 220.779, 564.046 220.471 C 564.544 220.164, 566.589 216.984, 568.591 213.404 C 570.592 209.825, 572.066 206.779, 571.865 206.635 C 571.664 206.490, 568.437 203.814, 564.693 200.686 C 560.949 197.559, 557.574 195.004, 557.193 195.009 C 556.812 195.014, 554.806 197.998, 552.736 201.639 M 338.289 201.634 C 335.105 204.182, 331.888 206.835, 331.140 207.529 C 330.004 208.583, 330.307 209.753, 332.986 214.645 C 334.749 217.865, 336.649 221.057, 337.208 221.738 C 337.999 222.701, 338.810 222.537, 340.862 220.998 C 342.313 219.910, 345.697 217.062, 348.383 214.668 L 353.266 210.316 349.383 203.677 C 347.247 200.026, 345.180 197.030, 344.789 197.019 C 344.398 197.009, 341.473 199.085, 338.289 201.634 M 531 197.965 C 531 198.496, 529.650 201.059, 528 203.661 C 526.350 206.263, 525 208.944, 525 209.620 C 525 210.296, 528.023 213.358, 531.717 216.424 C 535.412 219.491, 538.900 221.995, 539.467 221.988 C 540.035 221.982, 542.075 219.169, 544 215.738 C 545.925 212.307, 547.637 209.202, 547.804 208.837 C 547.972 208.472, 544.997 205.660, 541.194 202.587 C 537.391 199.514, 533.541 197, 532.639 197 C 531.738 197, 531 197.434, 531 197.965 M 501.416 210.583 C 499.411 214.169, 498.028 217.361, 498.343 217.676 C 498.658 217.991, 501.972 219.335, 505.708 220.662 C 509.444 221.989, 513.226 223.319, 514.114 223.618 C 515.303 224.019, 516.688 222.414, 519.381 217.514 C 521.391 213.858, 522.794 210.476, 522.499 209.998 C 522.204 209.520, 519.608 208.265, 516.731 207.208 C 513.854 206.151, 510.052 205.010, 508.281 204.674 C 505.171 204.083, 504.941 204.281, 501.416 210.583 M 361.657 207.426 C 358.444 208.760, 355.555 210.112, 355.238 210.429 C 354.920 210.746, 355.662 213.142, 356.886 215.753 C 358.109 218.364, 359.911 221.560, 360.889 222.855 L 362.667 225.210 366.699 223.153 C 368.917 222.022, 372.817 220.571, 375.366 219.930 C 377.915 219.288, 379.995 218.478, 379.988 218.131 C 379.982 217.784, 378.477 214.800, 376.646 211.500 C 373.874 206.507, 372.827 205.458, 370.408 205.250 C 368.808 205.112, 364.871 206.091, 361.657 207.426 M 544.674 216.654 C 542.653 220.289, 541 223.654, 541 224.132 C 541 224.609, 541.359 225, 541.799 225 C 542.238 225, 544.399 226.732, 546.602 228.848 C 548.804 230.964, 551.743 233.441, 553.132 234.351 C 555.588 235.960, 555.698 235.930, 557.061 233.253 C 557.832 231.739, 559.549 228.803, 560.878 226.730 C 562.206 224.656, 563.484 223.151, 563.719 223.385 C 563.953 223.619, 563.089 225.541, 561.799 227.656 C 560.510 229.770, 558.821 232.747, 558.048 234.270 C 557.053 236.227, 556.953 237.353, 557.704 238.104 C 558.289 238.689, 561.632 240.262, 565.134 241.600 C 569.177 243.145, 570.223 243.800, 568 243.394 C 566.075 243.043, 562.725 241.857, 560.556 240.759 L 556.612 238.761 554.701 241.121 C 553.650 242.419, 551.738 245.558, 550.451 248.096 L 548.113 252.711 552.806 254.876 C 555.388 256.067, 559.487 257.603, 561.916 258.290 L 566.331 259.539 570.059 252.520 C 572.643 247.654, 573.436 245.275, 572.643 244.765 C 571.905 244.291, 572.103 244.025, 573.201 244.015 C 574.243 244.006, 576.277 241.542, 578.451 237.654 C 580.403 234.164, 582 230.839, 582 230.265 C 582 229.692, 580.519 228.945, 578.709 228.605 C 576.899 228.266, 572.287 226.481, 568.459 224.640 C 564.632 222.799, 559.250 219.307, 556.500 216.881 C 553.750 214.454, 550.791 211.923, 549.924 211.256 C 548.575 210.218, 547.819 210.995, 544.674 216.654 M 325.924 213.582 C 324.591 215.002, 321.423 217.748, 318.885 219.685 L 314.270 223.205 317.591 228.721 C 319.418 231.754, 321.066 234.698, 321.254 235.262 C 321.475 235.926, 322.459 235.843, 324.048 235.028 C 325.397 234.335, 328.584 231.753, 331.132 229.288 C 333.795 226.712, 336.484 224.955, 337.459 225.154 C 338.391 225.344, 340.508 227.975, 342.163 231 C 343.819 234.025, 345.535 236.878, 345.977 237.340 C 346.419 237.802, 349.230 236.002, 352.224 233.340 C 355.218 230.678, 358.526 228.004, 359.574 227.398 C 361.408 226.337, 361.370 226.094, 358.578 220.898 C 356.983 217.929, 355.149 214.718, 354.503 213.762 C 353.444 212.195, 352.648 212.613, 346.414 218.008 C 342.611 221.300, 338.976 223.995, 338.336 223.997 C 337.695 223.998, 335.866 221.863, 334.271 219.250 C 332.675 216.637, 331.076 213.713, 330.716 212.750 C 330.357 211.787, 329.677 211, 329.206 211 C 328.734 211, 327.258 212.162, 325.924 213.582 M 519.821 219.018 L 516.141 226.022 518.821 227.464 C 520.294 228.257, 523.432 230.727, 525.793 232.953 C 528.155 235.179, 530.476 237, 530.952 237 C 531.427 237, 533.454 234.021, 535.455 230.380 C 537.456 226.739, 538.960 223.673, 538.797 223.566 C 538.634 223.460, 535.437 220.814, 531.693 217.686 C 527.949 214.559, 524.574 212.003, 524.193 212.007 C 523.812 212.011, 521.844 215.166, 519.821 219.018 M 539.275 226.258 C 538.748 226.941, 536.896 230.030, 535.159 233.122 C 533.421 236.214, 532 238.975, 532 239.258 C 532 239.541, 535.088 242.299, 538.861 245.387 C 542.635 248.474, 546.196 251, 546.775 251 C 547.354 251, 549.499 248.011, 551.542 244.358 L 555.257 237.715 551.378 234.349 C 549.245 232.497, 545.865 229.640, 543.866 227.999 C 541.102 225.730, 540.003 225.313, 539.275 226.258 M 333 229.298 C 331.075 231.103, 327.845 233.828, 325.822 235.353 L 322.144 238.127 326.317 245.064 C 328.612 248.879, 330.740 252, 331.046 252 C 331.352 252, 334.845 249.249, 338.810 245.887 L 346.018 239.775 342.850 234.137 C 341.108 231.037, 339.249 227.938, 338.719 227.250 C 338.189 226.563, 337.473 226.004, 337.128 226.009 C 336.782 226.013, 334.925 227.494, 333 229.298 M 513.872 229.250 C 513.213 230.488, 511.847 232.976, 510.837 234.780 C 509.827 236.585, 509 238.671, 509 239.418 C 509 240.164, 512.181 243.345, 516.068 246.486 C 519.956 249.627, 523.284 252.040, 523.463 251.848 C 523.642 251.657, 525.399 248.816, 527.367 245.535 L 530.945 239.571 528.723 237.152 C 527.500 235.821, 524.322 232.993, 521.660 230.866 C 518.998 228.740, 516.427 227, 515.945 227 C 515.464 227, 514.531 228.012, 513.872 229.250 M 356.983 230.778 C 355.048 232.275, 352.235 234.594, 350.733 235.930 C 349.230 237.267, 348 239.167, 348 240.153 C 348 241.140, 349.123 243.871, 350.496 246.223 C 351.869 248.575, 353.384 251.125, 353.863 251.888 C 354.541 252.968, 356.263 251.986, 361.617 247.467 C 365.403 244.272, 368.638 241.322, 368.806 240.911 C 368.974 240.500, 367.730 237.427, 366.042 234.082 C 364.353 230.737, 362.415 228.013, 361.736 228.028 C 361.056 228.043, 358.917 229.281, 356.983 230.778 M 592.500 242.509 C 590.300 243.224, 585.489 244.132, 581.809 244.528 L 575.118 245.247 571.504 252.123 L 567.891 259 572.199 259 C 574.568 259, 579.633 258.106, 583.454 257.013 C 587.276 255.920, 590.940 254.458, 591.597 253.763 C 592.254 253.068, 594.231 249.912, 595.991 246.750 C 598.096 242.968, 598.730 241.036, 597.845 241.105 C 597.105 241.163, 594.700 241.794, 592.500 242.509 M 326.987 255.552 C 325.619 256.309, 322.250 257.654, 319.500 258.542 C 316.750 259.429, 313.966 260.320, 313.313 260.522 C 312.495 260.775, 312.863 262.415, 314.501 265.811 C 315.807 268.518, 317.611 271.469, 318.510 272.367 C 319.612 273.469, 321.018 273.800, 322.822 273.384 C 324.295 273.044, 328.087 271.632, 331.250 270.246 C 334.413 268.861, 336.996 267.226, 336.991 266.613 C 336.985 266.001, 335.645 263.170, 334.011 260.322 C 332.378 257.474, 330.689 254.926, 330.258 254.660 C 329.827 254.393, 328.356 254.795, 326.987 255.552" stroke="none" fill="#1a1819" fill-rule="evenodd"/></svg>